<mxfile host="app.diagrams.net" agent="Mozilla/5.0 (Windows NT 10.0; Win64; x64) AppleWebKit/537.36 (KHTML, like Gecko) Chrome/130.0.0.0 Safari/537.36 Edg/130.0.0.0" version="24.8.4">
  <diagram name="Trang-1" id="nWVhs0DszSscZj35r--G">
    <mxGraphModel dx="508" dy="284" grid="1" gridSize="10" guides="1" tooltips="1" connect="1" arrows="1" fold="1" page="1" pageScale="1" pageWidth="827" pageHeight="1169" math="0" shadow="0">
      <root>
        <mxCell id="0" />
        <mxCell id="1" parent="0" />
        <mxCell id="gH9khlMCjb5PCVzz_qg0-7" style="edgeStyle=orthogonalEdgeStyle;rounded=0;orthogonalLoop=1;jettySize=auto;html=1;entryX=0;entryY=0.5;entryDx=0;entryDy=0;strokeWidth=1.5;endArrow=blockThin;endFill=1;" edge="1" parent="1" source="gH9khlMCjb5PCVzz_qg0-1" target="gH9khlMCjb5PCVzz_qg0-2">
          <mxGeometry relative="1" as="geometry" />
        </mxCell>
        <mxCell id="gH9khlMCjb5PCVzz_qg0-1" value="&lt;font style=&quot;font-size: 20px;&quot;&gt;RF&lt;/font&gt;" style="rounded=0;whiteSpace=wrap;html=1;" vertex="1" parent="1">
          <mxGeometry x="200" y="200" width="80" height="80" as="geometry" />
        </mxCell>
        <mxCell id="gH9khlMCjb5PCVzz_qg0-8" style="edgeStyle=orthogonalEdgeStyle;shape=connector;rounded=0;orthogonalLoop=1;jettySize=auto;html=1;strokeColor=default;strokeWidth=1.5;align=center;verticalAlign=middle;fontFamily=Helvetica;fontSize=11;fontColor=default;labelBackgroundColor=default;endArrow=blockThin;endFill=1;" edge="1" parent="1" source="gH9khlMCjb5PCVzz_qg0-2" target="gH9khlMCjb5PCVzz_qg0-3">
          <mxGeometry relative="1" as="geometry" />
        </mxCell>
        <mxCell id="gH9khlMCjb5PCVzz_qg0-2" value="&lt;font style=&quot;font-size: 20px;&quot;&gt;Modulation&lt;/font&gt;" style="rounded=0;whiteSpace=wrap;html=1;" vertex="1" parent="1">
          <mxGeometry x="360" y="200" width="120" height="80" as="geometry" />
        </mxCell>
        <mxCell id="gH9khlMCjb5PCVzz_qg0-9" style="edgeStyle=orthogonalEdgeStyle;shape=connector;rounded=0;orthogonalLoop=1;jettySize=auto;html=1;entryX=0;entryY=0.5;entryDx=0;entryDy=0;strokeColor=default;strokeWidth=1.5;align=center;verticalAlign=middle;fontFamily=Helvetica;fontSize=11;fontColor=default;labelBackgroundColor=default;endArrow=blockThin;endFill=1;" edge="1" parent="1" source="gH9khlMCjb5PCVzz_qg0-3" target="gH9khlMCjb5PCVzz_qg0-4">
          <mxGeometry relative="1" as="geometry" />
        </mxCell>
        <mxCell id="gH9khlMCjb5PCVzz_qg0-3" value="&lt;font style=&quot;font-size: 20px;&quot;&gt;Coding&lt;/font&gt;" style="rounded=0;whiteSpace=wrap;html=1;" vertex="1" parent="1">
          <mxGeometry x="520" y="200" width="120" height="80" as="geometry" />
        </mxCell>
        <mxCell id="gH9khlMCjb5PCVzz_qg0-10" style="edgeStyle=orthogonalEdgeStyle;shape=connector;rounded=0;orthogonalLoop=1;jettySize=auto;html=1;entryX=0;entryY=0.5;entryDx=0;entryDy=0;strokeColor=default;strokeWidth=1.5;align=center;verticalAlign=middle;fontFamily=Helvetica;fontSize=11;fontColor=default;labelBackgroundColor=default;endArrow=blockThin;endFill=1;" edge="1" parent="1" source="gH9khlMCjb5PCVzz_qg0-4" target="gH9khlMCjb5PCVzz_qg0-5">
          <mxGeometry relative="1" as="geometry" />
        </mxCell>
        <mxCell id="gH9khlMCjb5PCVzz_qg0-4" value="&lt;font style=&quot;font-size: 20px;&quot;&gt;Framing&lt;/font&gt;" style="rounded=0;whiteSpace=wrap;html=1;" vertex="1" parent="1">
          <mxGeometry x="680" y="200" width="120" height="80" as="geometry" />
        </mxCell>
        <mxCell id="gH9khlMCjb5PCVzz_qg0-5" value="&lt;font style=&quot;font-size: 20px;&quot;&gt;Processing&lt;/font&gt;" style="rounded=0;whiteSpace=wrap;html=1;" vertex="1" parent="1">
          <mxGeometry x="840" y="200" width="120" height="80" as="geometry" />
        </mxCell>
        <mxCell id="gH9khlMCjb5PCVzz_qg0-11" value="&lt;font style=&quot;font-size: 20px;&quot;&gt;Intelligence (Sense, Learn, Optimize)&lt;/font&gt;" style="rounded=0;whiteSpace=wrap;html=1;" vertex="1" parent="1">
          <mxGeometry x="360" y="320" width="440" height="60" as="geometry" />
        </mxCell>
        <mxCell id="gH9khlMCjb5PCVzz_qg0-16" value="" style="endArrow=blockThin;startArrow=blockThin;html=1;rounded=0;strokeColor=default;strokeWidth=1.5;align=center;verticalAlign=middle;fontFamily=Helvetica;fontSize=11;fontColor=default;labelBackgroundColor=default;edgeStyle=orthogonalEdgeStyle;entryX=0.5;entryY=1;entryDx=0;entryDy=0;exitX=0.5;exitY=0;exitDx=0;exitDy=0;endFill=1;startFill=1;" edge="1" parent="1" source="gH9khlMCjb5PCVzz_qg0-11" target="gH9khlMCjb5PCVzz_qg0-3">
          <mxGeometry width="50" height="50" relative="1" as="geometry">
            <mxPoint x="550" y="350" as="sourcePoint" />
            <mxPoint x="600" y="300" as="targetPoint" />
          </mxGeometry>
        </mxCell>
        <mxCell id="gH9khlMCjb5PCVzz_qg0-19" value="" style="endArrow=blockThin;startArrow=blockThin;html=1;rounded=0;strokeColor=default;strokeWidth=1.5;align=center;verticalAlign=middle;fontFamily=Helvetica;fontSize=11;fontColor=default;labelBackgroundColor=default;edgeStyle=orthogonalEdgeStyle;entryX=0.5;entryY=1;entryDx=0;entryDy=0;exitX=0.5;exitY=0;exitDx=0;exitDy=0;endFill=1;startFill=1;" edge="1" parent="1">
          <mxGeometry width="50" height="50" relative="1" as="geometry">
            <mxPoint x="750" y="320" as="sourcePoint" />
            <mxPoint x="750" y="280" as="targetPoint" />
          </mxGeometry>
        </mxCell>
        <mxCell id="gH9khlMCjb5PCVzz_qg0-20" value="" style="endArrow=blockThin;startArrow=blockThin;html=1;rounded=0;strokeColor=default;strokeWidth=1.5;align=center;verticalAlign=middle;fontFamily=Helvetica;fontSize=11;fontColor=default;labelBackgroundColor=default;edgeStyle=orthogonalEdgeStyle;entryX=0.5;entryY=1;entryDx=0;entryDy=0;exitX=0.5;exitY=0;exitDx=0;exitDy=0;endFill=1;startFill=1;" edge="1" parent="1">
          <mxGeometry width="50" height="50" relative="1" as="geometry">
            <mxPoint x="419.88" y="320" as="sourcePoint" />
            <mxPoint x="419.88" y="280" as="targetPoint" />
          </mxGeometry>
        </mxCell>
      </root>
    </mxGraphModel>
  </diagram>
</mxfile>
